<svg xmlns="http://www.w3.org/2000/svg" xmlns:xlink="http://www.w3.org/1999/xlink" viewBox="0 0 150 125.87"><defs><style>.cls-1{fill:url(#Sky);}.cls-2{stroke:#000;stroke-miterlimit:10;stroke-width:3px;fill:url(#Sky-2);}</style><linearGradient id="Sky" x1="1.75" y1="62.93" x2="148.25" y2="62.93" gradientUnits="userSpaceOnUse"><stop offset="0" stop-color="#cce0f4"/><stop offset="0.06" stop-color="#c3dcf2"/><stop offset="0.17" stop-color="#a9d2ee"/><stop offset="0.31" stop-color="#80c2e7"/><stop offset="0.46" stop-color="#47acde"/><stop offset="0.57" stop-color="#1e9cd7"/><stop offset="0.87" stop-color="#0075be"/><stop offset="0.99" stop-color="#005b97"/></linearGradient><linearGradient id="Sky-2" x1="111.17" y1="62.57" x2="111.46" y2="62.57" xlink:href="#Sky"/></defs><g id="Layer_2" data-name="Layer 2"><g id="Layer_1-2" data-name="Layer 1"><polygon class="cls-1" points="1.75 62.94 38.35 1.5 111.65 1.5 148.25 62.93 111.65 124.37 38.35 124.37 1.75 62.94"/><path d="M110.79,3l35.72,59.93L110.8,122.87H39.21L3.49,62.94,39.2,3h71.59m1.71-3h-75L0,62.94l37.5,62.93h75L150,62.93,112.5,0Z"/><path d="M37.87.63H51.46V60.85h.47c2.82-4.82,5.63-9.27,8.28-13.34L92.4.63h16.87l-38.12,53,41.09,71.9H96.15L61.46,64.18l-10,13.72v47.62H37.87Z"/><line class="cls-2" x1="111.17" y1="124.8" x2="111.46" y2="0.35"/></g></g></svg>