<svg xmlns="http://www.w3.org/2000/svg" xmlns:xlink="http://www.w3.org/1999/xlink" viewBox="0 0 150 178.51"><defs><style>.cls-1{fill:url(#Sky);}.cls-2{stroke:#000;stroke-miterlimit:10;stroke-width:3px;fill:url(#Sky-2);}</style><linearGradient id="Sky" x1="1.75" y1="62.93" x2="148.25" y2="62.93" gradientUnits="userSpaceOnUse"><stop offset="0" stop-color="#cce0f4"/><stop offset="0.06" stop-color="#c3dcf2"/><stop offset="0.17" stop-color="#a9d2ee"/><stop offset="0.31" stop-color="#80c2e7"/><stop offset="0.46" stop-color="#47acde"/><stop offset="0.57" stop-color="#1e9cd7"/><stop offset="0.87" stop-color="#0075be"/><stop offset="0.99" stop-color="#005b97"/></linearGradient><linearGradient id="Sky-2" x1="111.17" y1="62.57" x2="111.46" y2="62.57" xlink:href="#Sky"/></defs><g id="Layer_2" data-name="Layer 2"><g id="Layer_1-2" data-name="Layer 1"><polygon class="cls-1" points="1.75 62.94 38.35 1.5 111.65 1.5 148.25 62.93 111.65 124.37 38.35 124.37 1.75 62.94"/><path d="M110.79,3l35.72,59.93L110.8,122.87H39.21L3.49,62.94,39.2,3h71.59m1.71-3h-75L0,62.94l37.5,62.93h75L150,62.93,112.5,0Z"/><path d="M37.87.63H51.46V60.85h.47c2.82-4.82,5.63-9.27,8.28-13.34L92.4.63h16.87l-38.12,53,41.09,71.9H96.15L61.46,64.18l-10,13.72v47.62H37.87Z"/><line class="cls-2" x1="111.17" y1="124.8" x2="111.46" y2="0.35"/><path d="M34.45,152.58a.41.41,0,0,0,.14.33.57.57,0,0,0,.34.1v.44H31.19V153c.35,0,.52-.14.52-.43V141.69c0-.29-.17-.44-.52-.44v-.43h3.74v.43a.58.58,0,0,0-.34.11.39.39,0,0,0-.14.33v4.56l5-3.92.53-.46c.12-.12.19-.22.19-.3a.25.25,0,0,0-.11-.24.44.44,0,0,0-.25-.08v-.43h5v.43a1.37,1.37,0,0,0-.87.36L38.43,146l5,5.83a7.23,7.23,0,0,0,.74.71A2.35,2.35,0,0,0,45,153v.44H40.59V153c.21,0,.32,0,.32-.16a1.44,1.44,0,0,0-.34-.53l-4.1-4.73-2,1.56Z"/><path d="M56.67,145.12c0-.31-.25-.46-.74-.46H50.07v2.4h3.7a2.2,2.2,0,0,0,.6-.06c.13,0,.19-.15.19-.32H55v2.54h-.48a.22.22,0,0,0-.19-.32,3.47,3.47,0,0,0-.74-.06H50.07v2.83h6.15a.82.82,0,0,0,.48-.13.41.41,0,0,0,.19-.35h.43v2.52h-.43a.21.21,0,0,0-.19-.24,3.4,3.4,0,0,0-.48,0H47.41V153a.38.38,0,0,0,.24-.08.32.32,0,0,0,.12-.28v-9a.32.32,0,0,0-.12-.28.46.46,0,0,0-.24-.08v-.43h8.52c.49,0,.74-.15.74-.44h.44v2.67Z"/><path d="M66.11,142.74a8.69,8.69,0,0,1,2.48.34,5.86,5.86,0,0,1,2,1A4.84,4.84,0,0,1,72,145.78a5.94,5.94,0,0,1,0,4.77,5,5,0,0,1-1.37,1.7,5.63,5.63,0,0,1-2,1,10.44,10.44,0,0,1-5,0,5.63,5.63,0,0,1-2-1,4.83,4.83,0,0,1-1.36-1.7,5.83,5.83,0,0,1,0-4.77,4.71,4.71,0,0,1,1.36-1.69,5.86,5.86,0,0,1,2-1A8.71,8.71,0,0,1,66.11,142.74Zm0,1.78a4.46,4.46,0,0,0-1.5.25,4.27,4.27,0,0,0-1.31.72,3.44,3.44,0,0,0-.93,1.14,3.64,3.64,0,0,0,0,3.07,3.44,3.44,0,0,0,.93,1.14,4.27,4.27,0,0,0,1.31.72,4.46,4.46,0,0,0,1.5.25,4.54,4.54,0,0,0,1.5-.25,4.34,4.34,0,0,0,1.3-.72,3.44,3.44,0,0,0,.93-1.14,3.54,3.54,0,0,0,0-3.07,3.44,3.44,0,0,0-.93-1.14,4.34,4.34,0,0,0-1.3-.72A4.54,4.54,0,0,0,66.11,144.52Z"/><path d="M78.66,143.32c-.36,0-.53.12-.53.36v5.51A2.28,2.28,0,0,0,79,151a5.07,5.07,0,0,0,5.14,0,2.28,2.28,0,0,0,.84-1.85v-5.51q0-.36-.6-.36v-.43h3.33v.43c-.35,0-.53.12-.53.36v6.07a3.26,3.26,0,0,1-.33,1.43,3.63,3.63,0,0,1-1,1.21,5.14,5.14,0,0,1-1.76.83,10.61,10.61,0,0,1-5,0,5.09,5.09,0,0,1-1.75-.83,3.41,3.41,0,0,1-1-1.21,3.13,3.13,0,0,1-.34-1.43v-6.07a.31.31,0,0,0-.14-.28,1.34,1.34,0,0,0-.55-.08v-.43h3.43Z"/><path d="M100.76,146.37l-.29-.17c0-.16,0-.25,0-.27a.64.64,0,0,0-.31-.46,3.28,3.28,0,0,0-.82-.47,5.47,5.47,0,0,0-1.14-.35,6.11,6.11,0,0,0-1.28-.13,7,7,0,0,0-1.68.2,4,4,0,0,0-1.39.65,3.33,3.33,0,0,0-1,1.14,3.65,3.65,0,0,0-.36,1.7,3.5,3.5,0,0,0,.38,1.7,3.31,3.31,0,0,0,1,1.1,4.34,4.34,0,0,0,1.35.61,5.71,5.71,0,0,0,1.44.19,12.3,12.3,0,0,0,2-.14,5.41,5.41,0,0,0,1.69-.55v-1.51H97.93a1,1,0,0,0-.46.1.53.53,0,0,0-.24.4H96.8v-2.47h.43a.38.38,0,0,0,.24.31,1.27,1.27,0,0,0,.46.07h4.7v.43a.71.71,0,0,0-.29.22.82.82,0,0,0-.07.36v2.28a.56.56,0,0,0,.06.3.64.64,0,0,0,.3.18v.29c-.14.09-.37.23-.68.39a7.2,7.2,0,0,1-1.18.5,10.16,10.16,0,0,1-1.64.39,12.16,12.16,0,0,1-2.09.16,10.67,10.67,0,0,1-2.82-.35,6,6,0,0,1-2.14-1,4.71,4.71,0,0,1-1.34-1.7,5.69,5.69,0,0,1,0-4.53,4.83,4.83,0,0,1,1.34-1.71,6.25,6.25,0,0,1,2.14-1.08,10.24,10.24,0,0,1,2.82-.37,7.44,7.44,0,0,1,1.66.17,10.72,10.72,0,0,1,1.25.36,8.64,8.64,0,0,1,.88.36,1.35,1.35,0,0,0,.51.17.69.69,0,0,0,.28,0,.78.78,0,0,0,.25-.15l.28.14Z"/><path d="M108.9,152.65a.34.34,0,0,0,.1.28.4.4,0,0,0,.26.08v.44h-3V153a.4.4,0,0,0,.26-.08.34.34,0,0,0,.1-.28v-9a.34.34,0,0,0-.1-.28.47.47,0,0,0-.26-.08v-.43h3v.43a.47.47,0,0,0-.26.08.34.34,0,0,0-.1.28v3.38h6.43v-3.38a.35.35,0,0,0-.11-.28.41.41,0,0,0-.25-.08v-.43h3v.43a.44.44,0,0,0-.25.08.35.35,0,0,0-.11.28v9a.35.35,0,0,0,.11.28.38.38,0,0,0,.25.08v.44h-3V153a.36.36,0,0,0,.25-.08.35.35,0,0,0,.11-.28V149H108.9Z"/><path d="M62.52,165.62A7.55,7.55,0,0,1,65,166a5.32,5.32,0,0,1,2,1.16,5.42,5.42,0,0,1,1.32,2,8.38,8.38,0,0,1,0,5.59,5.42,5.42,0,0,1-1.32,2,5.32,5.32,0,0,1-2,1.16,7.55,7.55,0,0,1-2.46.39h-8v-.44c.37,0,.55-.14.55-.43V166.49c0-.29-.18-.44-.55-.44v-.43Zm-1,10.56a8.74,8.74,0,0,0,2-.19,3.22,3.22,0,0,0,1.4-.68,3.06,3.06,0,0,0,.82-1.31,6.39,6.39,0,0,0,.28-2.07,6.32,6.32,0,0,0-.28-2.06,3.06,3.06,0,0,0-.82-1.31,3.12,3.12,0,0,0-1.4-.68,8.74,8.74,0,0,0-2-.19H57.84v8.49Z"/><path d="M81.33,169.92c0-.31-.25-.46-.74-.46H74.73v2.4h3.7a2.2,2.2,0,0,0,.6-.06c.13,0,.19-.15.19-.32h.43V174h-.48a.22.22,0,0,0-.19-.32,3.53,3.53,0,0,0-.74-.06H74.73v2.83h6.15a.82.82,0,0,0,.48-.13.43.43,0,0,0,.19-.35H82v2.52h-.43a.22.22,0,0,0-.19-.24,3.4,3.4,0,0,0-.48,0H72.07v-.44a.38.38,0,0,0,.24-.08.32.32,0,0,0,.12-.28v-9a.32.32,0,0,0-.12-.28.46.46,0,0,0-.24-.08v-.43h8.52c.49,0,.74-.15.74-.44h.43v2.67Z"/><path d="M96.21,168.12c-.22,0-.42.18-.6.55l-3.5,7.75a7,7,0,0,1-.4.84.73.73,0,0,0-.13.34c0,.09.14.17.43.21v.44H88.39v-.44l.23-.1a.19.19,0,0,0,.1-.18,1,1,0,0,0-.15-.39,5.77,5.77,0,0,1-.37-.72l-3.65-7.85a1,1,0,0,0-.25-.33.53.53,0,0,0-.3-.12v-.43h3.38v.43c-.19,0-.29.1-.29.31a1.46,1.46,0,0,0,.13.47l.3.66,2.76,6,2.62-5.8c.18-.39.31-.68.41-.87a.94.94,0,0,0,.12-.45c0-.2-.14-.29-.36-.29v-.43h3.14Z"/></g></g></svg>