<svg version="1.1" id="Layer_1" xmlns="http://www.w3.org/2000/svg" x="0" y="0" viewBox="0 0 252 144" xml:space="preserve"><style>.st0,.st1{fill:none}.st1{stroke:#000;stroke-width:3;stroke-miterlimit:10}</style><switch><g><path class="st0" d="M-277.7 13.6h86.5v12.8h-86.5z"/><path d="M-275.5 19.9l-.4 2.2h-1.6l1.6-7.8h1.6l-.7 3.4 3.1-3.4h1.8l-5.4 5.6zm2.2-2.9l2 5h-1.9l-1.3-3.7 1.2-1.3zM-271.1 24.1l.5-1.1c.2.1.5.2.7.2.6 0 1-.2 1.4-.8l.2-.3-1.3-5.9h1.6l.5 2.6c.1.6.2 1.4.3 1.9.2-.5.6-1.3.9-1.9l1.4-2.6h1.7l-3.6 6.1c-.9 1.5-1.8 2.2-3.2 2.2-.4-.1-.9-.3-1.1-.4zM-261.2 20.3c0-.2 0-.5.1-.7l1-4.6h-1.7l.3-1.3h3.3l-1.3 6.1c0 .1-.1.3-.1.4 0 .4.3.6.7.6.4 0 .6-.1 1-.3l.3 1.2c-.6.3-1.2.4-1.8.4-1.1.1-1.8-.6-1.8-1.8zM-255.6 19.5c0-2.1 1.6-3.6 3.5-3.6 1.5 0 2.4 1 2.4 2.3 0 .5-.1 1-.2 1.2h-4.4l.2-1.1h3.4l-.5.2c0-.1.1-.3.1-.5 0-.7-.4-1-1-1-.8 0-1.8.7-1.8 2.3 0 1.1.6 1.4 1.4 1.4.7 0 1.2-.3 1.8-.6l.5 1.1c-.7.5-1.6.8-2.7.8-1.6.2-2.7-.7-2.7-2.5zM-239.5 19.9l-.4 2.2h-1.6l1.6-7.8h1.6l-.7 3.4 3.1-3.4h1.8l-5.4 5.6zm2.2-2.9l2 5h-1.9l-1.3-3.7 1.2-1.3zM-234 19.5c0-2.1 1.6-3.6 3.5-3.6 1.5 0 2.4 1 2.4 2.3 0 .5-.1 1-.2 1.2h-4.4l.2-1.1h3.4l-.5.2c0-.1.1-.3.1-.5 0-.7-.4-1-1-1-.8 0-1.8.7-1.8 2.3 0 1.1.6 1.4 1.4 1.4.7 0 1.2-.3 1.8-.6l.5 1.1c-.7.5-1.6.8-2.7.8-1.6.2-2.7-.7-2.7-2.5zM-226.9 19.5c0-2.1 1.7-3.6 3.5-3.6 1.6 0 2.6 1.1 2.6 2.6 0 2.1-1.7 3.6-3.5 3.6-1.6.1-2.6-1-2.6-2.6zm4.4-.9c0-.9-.4-1.4-1.1-1.4-.9 0-1.7.9-1.7 2.2 0 .9.4 1.4 1.1 1.4.9 0 1.7-.9 1.7-2.2zM-219.7 20.7c0-.3 0-.6.1-.9l.7-3.7h1.6l-.7 3.5c-.1.2-.1.4-.1.6 0 .4.2.6.6.6.5 0 1.1-.4 1.6-1.1l.7-3.6h1.6l-1.2 5.9h-1.3l.1-1c-.6.6-1.4 1.2-2.3 1.2-.8 0-1.4-.6-1.4-1.5zM-212.9 23.6l.7-1.1c.5.4 1.1.6 1.7.6.7 0 1.4-.2 1.7-1.1l.2-.9c-.5.4-1.2.8-1.8.8-1.3 0-2-.9-2-2.2 0-2.1 1.5-3.7 3.1-3.7.8 0 1.4.3 1.6.8l.3-.6h1.3l-1.2 5.8c-.4 1.9-1.7 2.5-3.2 2.5-1-.1-1.8-.4-2.4-.9zm4.4-3.8l.4-1.9c-.3-.4-.6-.6-1-.6-.8 0-1.7.8-1.7 2.1 0 .8.3 1.1.9 1.1.5 0 1-.2 1.4-.7zM-203.9 13.6h1.6l-.5 2.5-.3 1c.6-.6 1.4-1.1 2.2-1.1 1 0 1.5.5 1.5 1.5 0 .3 0 .6-.1.9l-.5 3.6h-1.6l.7-3.5c.1-.2.1-.4.1-.6 0-.4-.2-.6-.6-.6-.5 0-1.1.4-1.7 1.1l-.7 3.6h-1.6l1.5-8.4z"/><path class="st0" d="M-281.1 28.8h109.4v49.6h-109.4z"/><path d="M-275 30.2c0 .6-1.4 1-3.1 1s-3.1-.4-3.1-1v-.6c0-.6 1.4-1 3.1-1s3.1.4 3.1 1v.6zm0 2.2c0 .6-1.4 1-3.1 1s-3.1-.4-3.1-1V31c.7.5 1.9.7 3.1.7s2.4-.2 3.1-.7v1.4zm0 2.2c0 .6-1.4 1-3.1 1s-3.1-.4-3.1-1v-1.4c.7.5 1.9.7 3.1.7s2.4-.2 3.1-.7v1.4zM-272.4 30.1h.9c1.2 0 1.9.6 1.9 1.8 0 1.7-1 2.8-2.5 2.8h-1.3l1-4.6zm.3 4c1.1 0 1.8-.8 1.8-2.2 0-.8-.5-1.3-1.3-1.3h-.4l-.7 3.5h.6zM-268.9 33.5c0-1.2.8-2.3 1.9-2.3.5 0 .8.2 1 .5l.1-.4h.5l-.7 3.4h-.5v-.5c-.4.4-.8.6-1.2.6-.7 0-1.1-.5-1.1-1.3zm2.4.1l.3-1.4c-.2-.3-.5-.5-.8-.5-.7 0-1.3.8-1.3 1.6 0 .6.3.9.7.9.4 0 .8-.2 1.1-.6zM-264 33.8c0-.1 0-.3.1-.4l.3-1.6h-1l.1-.5h1l.3-1.1h.5l-.2 1.1h1.6l-.1.5h-1.6l-.3 1.6v.3c0 .4.2.6.6.6.3 0 .6-.1.9-.2l.2.5c-.3.2-.7.3-1.2.3-.9-.1-1.2-.5-1.2-1.1zM-260.5 33.5c0-1.2.8-2.3 1.9-2.3.5 0 .8.2 1 .5l.1-.4h.5l-.7 3.4h-.5v-.5c-.4.4-.8.6-1.2.6-.7 0-1.1-.5-1.1-1.3zm2.4.1l.3-1.4c-.2-.3-.5-.5-.8-.5-.7 0-1.3.8-1.3 1.6 0 .6.3.9.7.9.4 0 .8-.2 1.1-.6zM-252.2 33.9l.4-.4c.3.4.7.6 1.2.6s.9-.3.9-.8c0-.3-.2-.5-.6-.7l-.5-.3c-.4-.2-.8-.6-.8-1.1 0-.7.6-1.3 1.5-1.3.6 0 1.1.3 1.4.7l-.4.4c-.2-.3-.6-.5-1-.5s-.8.3-.8.7c0 .3.2.5.5.7l.5.3c.4.3.8.6.8 1.2 0 .9-.7 1.4-1.6 1.4-.7 0-1.2-.4-1.5-.9zM-247.8 33.3c0-1.2 1-2.1 2.1-2.1.6 0 1 .3 1.3.6l-.4.4c-.2-.3-.5-.4-1-.4-.7 0-1.3.6-1.3 1.5 0 .7.4 1 1 1 .4 0 .7-.2 1-.4l.2.4c-.4.3-.8.5-1.4.5-.8 0-1.5-.5-1.5-1.5zM-242.6 33.9c0-.1 0-.2.1-.4l.4-1.7h-1.2l.1-.5h1.9l-.5 2.3v.2c0 .3.2.5.5.5.2 0 .4-.1.6-.2l.1.5c-.3.1-.6.2-1 .2-.6 0-1-.4-1-.9zm.5-3.7c0-.3.2-.5.5-.5s.5.2.5.4c0 .3-.2.5-.5.5s-.5-.2-.5-.4zM-239.5 33.3c0-1.2.9-2.1 2-2.1.9 0 1.3.6 1.3 1.3 0 .3-.1.5-.1.6h-2.7l.1-.5h2.3l-.2.1v-.3c0-.5-.3-.8-.8-.8-.6 0-1.3.6-1.3 1.6 0 .7.4 1 1 1 .4 0 .8-.2 1.1-.4l.2.4c-.4.3-.9.5-1.5.5-.8.1-1.4-.4-1.4-1.4zM-234.8 31.3h.5l-.1.7c.4-.4.9-.8 1.5-.8s.9.3.9.9c0 .2 0 .4-.1.5l-.4 2.1h-.6l.4-2c0-.2.1-.3.1-.4 0-.3-.2-.5-.5-.5-.4 0-.9.3-1.3.8l-.4 2.2h-.6l.6-3.5zM-231 33.3c0-1.2 1-2.1 2.1-2.1.6 0 1 .3 1.3.6l-.4.4c-.2-.3-.5-.4-1-.4-.7 0-1.3.6-1.3 1.5 0 .7.4 1 1 1 .4 0 .7-.2 1-.4l.2.4c-.4.3-.8.5-1.4.5-.8 0-1.5-.5-1.5-1.5zM-226.9 33.3c0-1.2.9-2.1 2-2.1.9 0 1.3.6 1.3 1.3 0 .3-.1.5-.1.6h-2.7l.1-.5h2.3l-.2.1v-.3c0-.5-.3-.8-.8-.8-.6 0-1.3.6-1.3 1.6 0 .7.4 1 1 1 .4 0 .8-.2 1.1-.4l.2.4c-.4.3-.9.5-1.5.5-.8.1-1.4-.4-1.4-1.4zM-280.2 47.9c-.1.1-.3.1-.5 0l-.3-.3c-.1-.1-.1-.3 0-.5l2.1-2.1-2.1-2.1c-.1-.1-.1-.3 0-.5l.3-.3c.1-.1.3-.1.5 0l2.7 2.7c.1.1.1.3 0 .5l-2.7 2.6zm7.5.2h-4.2c-.2 0-.3-.1-.3-.3v-.4c0-.2.1-.3.3-.3h4.2c.2 0 .3.1.3.3v.4c.1.1-.1.3-.3.3zM-269.4 46.9l.4-.4c.3.4.7.6 1.2.6s.9-.3.9-.8c0-.3-.2-.5-.6-.7l-.5-.3c-.4-.2-.8-.6-.8-1.1 0-.7.6-1.3 1.5-1.3.6 0 1.1.3 1.4.7l-.4.4c-.2-.3-.6-.5-1-.5s-.8.3-.8.7c0 .3.2.5.5.7l.5.3c.4.3.8.6.8 1.2 0 .9-.7 1.4-1.6 1.4-.6-.1-1.1-.4-1.5-.9zM-265.1 46.2c0-1.2.9-2.1 2-2.1.9 0 1.5.6 1.5 1.5 0 1.2-.9 2.1-2 2.1-1 0-1.5-.6-1.5-1.5zm2.8-.5c0-.6-.3-1-.8-1-.7 0-1.3.7-1.3 1.5 0 .6.3 1 .8 1 .7 0 1.3-.7 1.3-1.5zM-260.4 44.3h3l-.1.5h-3l.1-.5zm1.1-.4c.2-.9.7-1.3 1.5-1.3.4 0 .8.2 1 .3l-.3.4c-.2-.2-.4-.2-.7-.2-.5 0-.8.2-.9.8l-.7 3.7h-.6l.7-3.7zM-255.9 46.7c0-.1 0-.3.1-.4l.3-1.6h-1l.1-.5h1l.3-1.1h.5l-.2 1.1h1.6l-.1.5h-1.6l-.3 1.6v.3c0 .4.2.6.6.6.3 0 .6-.1.9-.2l.2.5c-.3.2-.7.3-1.2.3-.9-.1-1.2-.5-1.2-1.1zM-252.5 44.2h.6v2.9c.1-.3.2-.6.4-1l.7-1.7h.6l.1 1.7v1c.1-.3.2-.6.3-1l.7-1.9h.6l-1.4 3.4h-.8V46v-.9c-.1.4-.2.6-.3.9l-.7 1.6h-.8v-3.4zM-248.3 46.4c0-1.2.8-2.3 1.9-2.3.5 0 .8.2 1 .5l.1-.4h.5l-.7 3.4h-.5v-.5c-.4.4-.8.6-1.2.6-.6 0-1.1-.4-1.1-1.3zm2.5.2l.3-1.4c-.2-.3-.5-.5-.8-.5-.7 0-1.3.8-1.3 1.6 0 .6.3.9.7.9.3 0 .7-.2 1.1-.6zM-243.1 44.2h.5l-.1 1c.4-.6.9-1 1.5-1 .3 0 .5.1.7.2l-.2.6c-.2-.1-.3-.1-.6-.1-.5 0-1 .5-1.5 1.2l-.3 1.7h-.6l.6-3.6zM-239.8 46.2c0-1.2.9-2.1 2-2.1.9 0 1.3.6 1.3 1.3 0 .3-.1.5-.1.6h-2.7l.1-.5h2.3l-.2.1v-.3c0-.5-.3-.8-.8-.8-.6 0-1.3.6-1.3 1.6 0 .7.4 1 1 1 .4 0 .8-.2 1.1-.4l.2.4c-.4.3-.9.5-1.5.5-.8.1-1.4-.4-1.4-1.4zM-230.8 43.1h.9c1.2 0 1.9.6 1.9 1.8 0 1.7-1 2.8-2.5 2.8h-1.3l1-4.6zm.4 4c1.1 0 1.8-.8 1.8-2.2 0-.8-.5-1.3-1.3-1.3h-.4l-.7 3.5h.6zM-227.2 46.2c0-1.2.9-2.1 2-2.1.9 0 1.3.6 1.3 1.3 0 .3-.1.5-.1.6h-2.7l.1-.5h2.3l-.2.1v-.3c0-.5-.3-.8-.8-.8-.6 0-1.3.6-1.3 1.6 0 .7.4 1 1 1 .4 0 .8-.2 1.1-.4l.2.4c-.4.3-.9.5-1.5.5-.8.1-1.4-.4-1.4-1.4zM-222.8 44.2h.6l.4 1.9c.1.3.1.7.2 1 .2-.3.4-.7.6-1l1.1-1.9h.7l-2 3.4h-.8l-.8-3.4zM-218.8 46.2c0-1.2.9-2.1 2-2.1.9 0 1.3.6 1.3 1.3 0 .3-.1.5-.1.6h-2.7l.1-.5h2.3l-.2.1v-.3c0-.5-.3-.8-.8-.8-.6 0-1.3.6-1.3 1.6 0 .7.4 1 1 1 .4 0 .8-.2 1.1-.4l.2.4c-.4.3-.9.5-1.5.5-.8.1-1.4-.4-1.4-1.4zM-213.7 46.8c0-.1 0-.2.1-.4l.7-3.2h-1.1l.1-.5h1.7l-.8 3.8v.3c0 .3.2.5.5.5.2 0 .4-.1.6-.2l.2.5c-.3.2-.6.2-1 .2-.6-.1-1-.4-1-1zM-210.5 46.2c0-1.2.9-2.1 2-2.1.9 0 1.5.6 1.5 1.5 0 1.2-.9 2.1-2 2.1-1 0-1.5-.6-1.5-1.5zm2.8-.5c0-.6-.3-1-.8-1-.7 0-1.3.7-1.3 1.5 0 .6.3 1 .8 1 .7 0 1.3-.7 1.3-1.5zM-205.7 44.2h.5l-.1.5c.3-.3.8-.6 1.2-.6.7 0 1.2.5 1.2 1.4 0 1.2-.7 2.2-1.9 2.2-.4 0-.8-.2-1-.5l-.1.7-.1 1.1h-.6l.9-4.8zm2.2 1.4c0-.6-.3-.9-.7-.9-.3 0-.7.2-1.1.6l-.3 1.4c.2.3.5.4.8.4.8.1 1.3-.6 1.3-1.5zM-201.8 44.2h.5v.5c.3-.3.6-.5.9-.5.3 0 .5.2.5.6l-.1.1c.3-.5.7-.6 1-.6.3 0 .5.2.5.6v.4l-.5 2.5h-.6l.5-2.4v-.2c0-.2-.1-.3-.2-.3-.2 0-.4.2-.6.5l-.5 2.4h-.6l.5-2.4v-.2c0-.2-.1-.3-.2-.3-.2 0-.4.2-.7.5l-.5 2.4h-.6l.7-3.6zM-197.8 46.2c0-1.2.9-2.1 2-2.1.9 0 1.3.6 1.3 1.3 0 .3-.1.5-.1.6h-2.7l.1-.5h2.3l-.2.1v-.3c0-.5-.3-.8-.8-.8-.6 0-1.3.6-1.3 1.6 0 .7.4 1 1 1 .4 0 .8-.2 1.1-.4l.2.4c-.4.3-.9.5-1.5.5-.8.1-1.4-.4-1.4-1.4zM-193.1 44.2h.5l-.1.7c.4-.4.9-.8 1.5-.8s.9.3.9.9c0 .2 0 .4-.1.5l-.4 2.1h-.6l.4-2c0-.2.1-.3.1-.4 0-.3-.2-.5-.5-.5-.4 0-.9.3-1.3.8l-.4 2.2h-.6l.6-3.5zM-188.7 46.7c0-.1 0-.3.1-.4l.3-1.6h-1l.1-.5h1l.3-1.1h.5l-.2 1.1h1.6l-.1.5h-1.6l-.3 1.6v.3c0 .4.2.6.6.6.3 0 .6-.1.9-.2l.2.5c-.3.2-.7.3-1.2.3-.9-.1-1.2-.5-1.2-1.1zM-279.1 60l-2-1.8c-.1-.1-.1-.2 0-.2l2-1.8c.1-.1.2-.1.2 0l.6.6c.1.1.1.2 0 .2l-1.2 1.1 1.2 1.1c.1.1.1.2 0 .2l-.6.6h-.2zm1 1.2c-.1 0-.1-.1-.1-.2l1.9-6.4c0-.1.1-.1.2-.1l.8.2c.1 0 .1.1.1.2l-1.9 6.4c0 .1-.1.1-.2.1l-.8-.2zm3.5-1.3l-.6-.6c-.1-.1-.1-.2 0-.2l1.2-1.1-1.2-1.1c-.1-.1-.1-.2 0-.2l.6-.6c.1-.1.2-.1.2 0l2 1.8c.1.1.1.2 0 .2l-2 1.8c0 .1-.1.1-.2 0zM-269 56h.6l-.3 3c0 .4-.1.8-.1 1 .1-.2.3-.8.4-1l.8-1.8h.5l.1 1.5c0 .3.1.9.1 1.2 0-.2.2-.8.2-1l.9-3h.6l-1.4 4.6h-.8l-.1-1.8v-.9c-.1.2-.2.6-.3.9l-.7 1.8h-.8l.3-4.5zM-265 59.2c0-1.2.9-2.1 2-2.1.9 0 1.3.6 1.3 1.3 0 .3-.1.5-.1.6h-2.7l.1-.5h2.3l-.2.1v-.3c0-.5-.3-.8-.8-.8-.6 0-1.3.6-1.3 1.6 0 .7.4 1 1 1 .4 0 .8-.2 1.1-.4l.2.4c-.4.3-.9.5-1.5.5-.8.1-1.4-.4-1.4-1.4zM-260.3 60.2l-.2.4h-.5l1-5h.6l-.3 1.3-.2.7c.3-.3.8-.6 1.2-.6.7 0 1.2.5 1.2 1.4 0 1.2-.8 2.2-1.9 2.2-.3.1-.7-.1-.9-.4zm2.2-1.6c0-.6-.3-.9-.7-.9-.3 0-.7.2-1.1.6l-.3 1.4c.2.3.5.4.8.4.8.1 1.3-.7 1.3-1.5zM-251.8 56h.9c1.2 0 1.9.6 1.9 1.8 0 1.7-1 2.8-2.5 2.8h-1.3l1-4.6zm.4 4.1c1.1 0 1.8-.8 1.8-2.2 0-.8-.5-1.3-1.3-1.3h-.4l-.7 3.5h.6zM-248.2 59.2c0-1.2.9-2.1 2-2.1.9 0 1.3.6 1.3 1.3 0 .3-.1.5-.1.6h-2.7l.1-.5h2.3l-.2.1v-.3c0-.5-.3-.8-.8-.8-.6 0-1.3.6-1.3 1.6 0 .7.4 1 1 1 .4 0 .8-.2 1.1-.4l.2.4c-.4.3-.9.5-1.5.5-.8.1-1.4-.4-1.4-1.4zM-243.8 57.2h.6l.4 1.9c.1.3.1.7.2 1 .2-.3.4-.7.6-1l1.1-1.9h.7l-2 3.4h-.8l-.8-3.4zM-239.8 59.2c0-1.2.9-2.1 2-2.1.9 0 1.3.6 1.3 1.3 0 .3-.1.5-.1.6h-2.7l.1-.5h2.3l-.2.1v-.3c0-.5-.3-.8-.8-.8-.6 0-1.3.6-1.3 1.6 0 .7.4 1 1 1 .4 0 .8-.2 1.1-.4l.2.4c-.4.3-.9.5-1.5.5-.8.1-1.4-.4-1.4-1.4zM-234.7 59.7c0-.1 0-.2.1-.4l.7-3.2h-1.1l.1-.5h1.7l-.8 3.8v.3c0 .3.2.5.5.5.2 0 .4-.1.6-.2l.2.5c-.3.2-.6.2-1 .2-.6 0-1-.3-1-1zM-231.5 59.2c0-1.2.9-2.1 2-2.1.9 0 1.5.6 1.5 1.5 0 1.2-.9 2.1-2 2.1-1 0-1.5-.6-1.5-1.5zm2.8-.6c0-.6-.3-1-.8-1-.7 0-1.3.7-1.3 1.5 0 .6.3 1 .8 1 .7.1 1.3-.6 1.3-1.5zM-226.7 57.2h.5v.5c.3-.3.8-.6 1.2-.6.7 0 1.2.5 1.2 1.4 0 1.2-.7 2.2-1.9 2.2-.4 0-.8-.2-1-.5l-.1.7-.2 1.1h-.6l.9-4.8zm2.2 1.4c0-.6-.3-.9-.7-.9-.3 0-.7.2-1.1.6l-.3 1.4c.2.3.5.4.8.4.8.1 1.3-.7 1.3-1.5zM-222.8 57.2h.5v.5c.3-.3.6-.5.9-.5.3 0 .5.2.5.6l-.1.1c.3-.5.7-.6 1-.6.3 0 .5.2.5.6v.4l-.5 2.5h-.6l.5-2.4v-.2c0-.2-.1-.3-.2-.3-.2 0-.4.2-.6.5l-.5 2.4h-.6l.5-2.4v-.2c0-.2-.1-.3-.2-.3-.2 0-.4.2-.7.5l-.5 2.4h-.6l.7-3.6zM-218.8 59.2c0-1.2.9-2.1 2-2.1.9 0 1.3.6 1.3 1.3 0 .3-.1.5-.1.6h-2.7l.1-.5h2.3l-.2.1v-.3c0-.5-.3-.8-.8-.8-.6 0-1.3.6-1.3 1.6 0 .7.4 1 1 1 .4 0 .8-.2 1.1-.4l.2.4c-.4.3-.9.5-1.5.5-.8.1-1.4-.4-1.4-1.4zM-214.1 57.2h.5l-.1.7c.4-.4.9-.8 1.5-.8s.9.3.9.9c0 .2 0 .4-.1.5l-.4 2.1h-.6l.4-2c0-.2.1-.3.1-.4 0-.3-.2-.5-.5-.5-.4 0-.9.3-1.3.8l-.4 2.2h-.6l.6-3.5zM-209.7 59.7c0-.1 0-.3.1-.4l.3-1.6h-1l.1-.5h1l.3-1.1h.5l-.2 1.1h1.6l-.1.5h-1.6l-.3 1.6v.3c0 .4.2.6.6.6.3 0 .6-.1.9-.2l.2.5c-.3.2-.7.3-1.2.3-.9-.1-1.2-.5-1.2-1.1zM-277.6 72.7v.1c0 1-.7 1.6-1.8 1.6-1.2 0-1.8-1-1.8-2.1.1.1.6.5.8.5.1 0 .2-.1.2-.1.3-.7.8-1 1.3-1l1.3 1zm3.5-4.6c0 .2-.1.4-.2.6-1.5 2.9-2 3.5-2.9 3.5h-.3l-.9-.7c-.1-.2-.1-.3-.1-.5 0-.7.3-.8 3.1-3.3.1-.1.3-.2.5-.2.5 0 .8.2.8.6zM-271 71.8c0-1.5 1-2.9 2.4-2.9.6 0 .9.3 1.2.7l-.5.3c-.2-.3-.4-.5-.8-.5-1 0-1.7 1.2-1.7 2.3 0 .8.3 1.4 1.1 1.4.3 0 .5-.1.7-.2l.2-1.2h-.9l.1-.5h1.5l-.4 2c-.3.3-.8.5-1.3.5-1 0-1.6-.8-1.6-1.9zM-265.8 70.2h.5l-.1 1c.4-.6.9-1 1.5-1 .3 0 .5.1.7.2l-.2.6c-.2-.1-.3-.1-.6-.1-.5 0-1 .5-1.5 1.2l-.3 1.7h-.6l.6-3.6zM-262.6 72.4c0-1.2.8-2.3 1.9-2.3.5 0 .8.2 1 .5l.1-.4h.5l-.7 3.4h-.5v-.5c-.4.4-.8.6-1.2.6-.7 0-1.1-.5-1.1-1.3zm2.4.1l.3-1.4c-.2-.3-.5-.5-.8-.5-.7 0-1.3.8-1.3 1.6 0 .6.3.9.7.9.4 0 .8-.2 1.1-.6zM-257.9 70.2h.5l-.1.5c.3-.3.8-.6 1.2-.6.7 0 1.2.5 1.2 1.4 0 1.2-.7 2.2-1.9 2.2-.4 0-.8-.2-1-.5l-.1.7-.2 1.1h-.6l1-4.8zm2.3 1.3c0-.6-.3-.9-.7-.9-.3 0-.7.2-1.1.6l-.3 1.4c.2.3.5.4.8.4.7.1 1.3-.6 1.3-1.5zM-253.3 68.6h.6l-.4 1.7-.1.5c.4-.4.9-.7 1.4-.7.6 0 .9.3.9.9 0 .2 0 .4-.1.5l-.4 2.1h-.6l.4-2c0-.2.1-.3.1-.4 0-.3-.2-.5-.5-.5-.4 0-.9.3-1.3.8l-.4 2.2h-.6l1-5.1zM-248.9 72.8c0-.1 0-.2.1-.4l.4-1.7h-1.2l.1-.5h1.9l-.5 2.3v.2c0 .3.2.5.5.5.2 0 .4-.1.6-.2l.1.5c-.3.1-.6.2-1 .2-.6 0-1-.3-1-.9zm.5-3.7c0-.3.2-.5.5-.5s.5.2.5.4c0 .3-.2.5-.5.5s-.5-.2-.5-.4zM-245.7 72.2c0-1.2 1-2.1 2.1-2.1.6 0 1 .3 1.3.6l-.4.4c-.2-.3-.5-.4-1-.4-.7 0-1.3.6-1.3 1.5 0 .7.4 1 1 1 .4 0 .7-.2 1-.4l.2.4c-.4.3-.8.5-1.4.5-.8 0-1.5-.5-1.5-1.5zM-236.7 69h.9c1.2 0 1.9.6 1.9 1.8 0 1.7-1 2.8-2.5 2.8h-1.3l1-4.6zm.4 4.1c1.1 0 1.8-.8 1.8-2.2 0-.8-.5-1.3-1.3-1.3h-.4l-.7 3.5h.6zM-233.1 72.2c0-1.2.9-2.1 2-2.1.9 0 1.3.6 1.3 1.3 0 .3-.1.5-.1.6h-2.7l.1-.5h2.3l-.2.1v-.3c0-.5-.3-.8-.8-.8-.6 0-1.3.6-1.3 1.6 0 .7.4 1 1 1 .4 0 .8-.2 1.1-.4l.2.4c-.4.3-.9.5-1.5.5-.9.1-1.4-.4-1.4-1.4zM-229 73l.4-.4c.3.4.8.5 1.3.5.4 0 .7-.1.7-.5 0-.3-.3-.4-.8-.6-.7-.2-1-.5-1-1 0-.7.6-1 1.3-1 .7 0 1.1.3 1.4.6l-.4.4c-.3-.2-.7-.5-1.1-.5-.4 0-.6.2-.6.4 0 .3.3.4.8.6.6.2 1.1.5 1.1 1 0 .7-.7 1.1-1.5 1.1-.7.1-1.3-.2-1.6-.6zM-223.7 72.8c0-.1 0-.2.1-.4l.4-1.7h-1.2l.1-.5h1.9l-.5 2.3v.2c0 .3.2.5.5.5.2 0 .4-.1.6-.2l.1.5c-.3.1-.6.2-1 .2-.6 0-1-.3-1-.9zm.5-3.7c0-.3.2-.5.5-.5s.5.2.5.4c0 .3-.2.5-.5.5s-.5-.2-.5-.4zM-220.9 74.6l.3-.5c.3.2.7.4 1 .4.6 0 1-.2 1.2-.9l.2-.7c-.3.3-.8.5-1.2.5-.7 0-1.2-.5-1.2-1.3 0-1.2.8-2.2 1.8-2.2.5 0 .8.2 1 .5l.2-.4h.5l-.7 3.5c-.2 1-.9 1.4-1.8 1.4-.5.2-.9 0-1.3-.3zm2.7-2.2l.3-1.4c-.2-.3-.5-.5-.8-.5-.7 0-1.3.7-1.3 1.5 0 .6.3.8.7.8.4.2.8 0 1.1-.4zM-215.9 70.2h.5l-.1.7c.4-.4.9-.8 1.5-.8s.9.3.9.9c0 .2 0 .4-.1.5l-.4 2.1h-.6l.4-2c0-.2.1-.3.1-.4 0-.3-.2-.5-.5-.5-.4 0-.9.3-1.3.8l-.4 2.2h-.6l.6-3.5z"/><path class="st1" d="M50.6 49.7l32.5-25.6M94.8 70l32.5-25.7M83.1 24.1l-22.6 88.7M125.8 46.3L103.2 135M114.5 9.3L71.8 68.5M157.2 31.5l-42.7 59.1M71.8 68.5l21.3 43.4M114.5 90.6l21.3 43.4"/><ellipse cx="107.8" cy="79.4" rx="73" ry="28.5" fill="none" stroke="#000" stroke-miterlimit="10"/></g></switch></svg>